<?xml version="1.0" encoding="utf-8"?>
<!-- Generator: Adobe Illustrator 21.1.0, SVG Export Plug-In . SVG Version: 6.00 Build 0)  -->
<svg version="1.1" id="Capa_1" xmlns="http://www.w3.org/2000/svg" xmlns:xlink="http://www.w3.org/1999/xlink" x="0px" y="0px"
	 viewBox="0 0 16 16" style="enable-background:new 0 0 16 16;" xml:space="preserve">
<g>
	<path d="M11.4,6.7c-0.5-0.1-0.5-0.1-0.6-0.6c-0.1-1.3-1.2-2.2-2.4-2.2c-1,0-1.8,0.6-2.2,1.4C5.9,5.7,5.9,5.9,5.5,5.7
		C5.2,5.6,5,5.6,5,5.6C4.5,5.6,4.1,6,4.1,6.5c0,0.1,0,0.2,0.1,0.3c0.2,0.5,0.2,0.6-0.3,0.8C3.4,7.9,3.1,8.4,3.1,9
		c0,0.9,0.7,1.6,1.6,1.6H11v0c1.1,0,1.9-0.9,1.9-1.9C12.9,7.7,12.3,6.9,11.4,6.7z"/>
	<path d="M7.9,0.4C3.7,0.4,0.3,3.8,0.3,8c0,4.2,3.4,7.6,7.6,7.6s7.6-3.4,7.6-7.6C15.6,3.8,12.2,0.4,7.9,0.4z M11,11.3L11,11.3
		l-6.4,0v0c-1.3,0-2.3-1-2.3-2.3c0-0.8,0.5-1.6,1.1-2C3.4,6.8,3.4,6.7,3.4,6.5c0-0.9,0.7-1.6,1.6-1.6c0.2,0,0.3,0,0.5,0.1
		C6,3.9,7.1,3.1,8.4,3.1c1.7,0,3,1.3,3.1,2.9c1.2,0.2,2.1,1.3,2.1,2.6C13.7,10.1,12.5,11.3,11,11.3z"/>
</g>
</svg>
