<?xml version="1.0" encoding="utf-8"?>
<!-- Generator: Adobe Illustrator 24.1.1, SVG Export Plug-In . SVG Version: 6.00 Build 0)  -->
<svg version="1.1"
	 id="svg10" inkscape:export-filename="/home/felix/workspace/work/nextcloud-desktop/theme/white/wizard-nextcloud.png" inkscape:export-xdpi="37.5" inkscape:export-ydpi="37.5" inkscape:version="1.0.2 (e86c870879, 2021-01-15)" sodipodi:docname="wizard-nextcloud.svg" xmlns:cc="http://creativecommons.org/ns#" xmlns:dc="http://purl.org/dc/elements/1.1/" xmlns:inkscape="http://www.inkscape.org/namespaces/inkscape" xmlns:rdf="http://www.w3.org/1999/02/22-rdf-syntax-ns#" xmlns:sodipodi="http://sodipodi.sourceforge.net/DTD/sodipodi-0.dtd" xmlns:svg="http://www.w3.org/2000/svg"
	 xmlns="http://www.w3.org/2000/svg" xmlns:xlink="http://www.w3.org/1999/xlink" x="0px" y="0px" viewBox="0 0 200 100"
	 style="enable-background:new 0 0 200 100;" xml:space="preserve">
<style type="text/css">
	.st0{fill:none;stroke:#FFFFFF;stroke-width:7;stroke-miterlimit:10;}
</style>
<sodipodi:namedview  bordercolor="#666666" borderopacity="1" gridtolerance="10" guidetolerance="10" id="namedview12" inkscape:current-layer="svg10" inkscape:cx="63.321716" inkscape:cy="64.000003" inkscape:document-rotation="0" inkscape:pageopacity="0" inkscape:pageshadow="2" inkscape:window-height="1440" inkscape:window-maximized="0" inkscape:window-width="3440" inkscape:window-x="0" inkscape:window-y="0" inkscape:zoom="5.0976562" objecttolerance="10" pagecolor="#808080" showgrid="false">
	</sodipodi:namedview>
<path class="st0" d="M101.5,34.4C100.2,19.1,88.8,7.2,74.7,8.1C65.9,8.6,50.6,20.4,50.6,37c0,1.7,0.5,4.7,0.5,4.7
	c-10.2,0.8-19.5,10.6-19.5,22.5c0,12.3,8.5,22.5,18.7,22.5H119c7.6,0,13.6-6.4,13.6-14c0-7.2-5.1-13.2-11.5-14l0,0
	c0-12.3-8.5-23.8-18.7-23.8C102,34.4,101.5,34.4,101.5,34.4c-5.5,0.5-10.2,3.4-13.6,8.5"/>
</svg>
