<?xml version="1.0" encoding="utf-8"?>
<!-- Generator: Adobe Illustrator 21.1.0, SVG Export Plug-In . SVG Version: 6.00 Build 0)  -->
<svg version="1.1" id="Capa_1" xmlns="http://www.w3.org/2000/svg" xmlns:xlink="http://www.w3.org/1999/xlink" x="0px" y="0px"
	 viewBox="0 0 16 16" style="enable-background:new 0 0 16 16;" xml:space="preserve">
<style type="text/css">
	.st0{fill:#868686;}
	.st1{fill:#D8EAEF;}
	.st2{fill:#FFFFFF;}
</style>
<g transform="matrix(.87499 0 0 .87499 .26458 -255.9)">
	<circle class="st0" cx="8.8" cy="301.6" r="8"/>
	<path class="st1" d="M11.3,299.6c-0.1-1.4-1.3-2.4-2.8-2.4c-1.6,0-2.8,1.2-2.8,2.7c0,0.2,0,0.3,0,0.4l0,0c-1,0.1-1.8,1-1.8,2
		c0,1.1,0.9,2,2,2h7.3c0.8,0,1.4-0.6,1.4-1.3c0-0.7-0.5-1.2-1.2-1.3l0,0C13.3,300.7,12.4,299.7,11.3,299.6
		C11.3,299.6,11.3,299.6,11.3,299.6"/>
	<path class="st2" d="M10.2,299.6c-0.1-1.4-1.2-2.5-2.4-2.4c-0.8,0-2.2,1.1-2.2,2.6c0,0.2,0,0.4,0,0.4c-0.9,0.1-1.8,1-1.8,2
		c0,1.1,0.8,2,1.7,2h6.2c0.7,0,1.2-0.6,1.2-1.3c0-0.7-0.5-1.2-1-1.3l0,0C12,300.7,11.2,299.6,10.2,299.6
		C10.3,299.6,10.2,299.6,10.2,299.6c-0.5,0-0.9,0.3-1.2,0.8"/>
</g>
</svg>
