<?xml version="1.0" encoding="utf-8"?>
<!-- Generator: Adobe Illustrator 24.1.1, SVG Export Plug-In . SVG Version: 6.00 Build 0)  -->
<svg version="1.1" id="Capa_1" xmlns="http://www.w3.org/2000/svg" xmlns:xlink="http://www.w3.org/1999/xlink" x="0px" y="0px"
	 viewBox="0 0 266 126" style="enable-background:new 0 0 266 126;" xml:space="preserve">
<style type="text/css">
	.st0{fill:none;stroke:#0082C9;stroke-width:7;stroke-miterlimit:10;}
</style>
<path class="st0" d="M159.2,49.1c-1.5-17.6-14.7-31.4-30.8-30.3c-10.2,0.5-27.9,14.2-27.9,33.3c0,2,0.5,5.4,0.5,5.4
	c-11.7,1-22.5,12.3-22.5,26c0,14.2,9.8,26,21.6,26h79.3c8.8,0,15.6-7.4,15.6-16.2c0-8.3-5.9-15.2-13.2-16.2l0,0
	c0-14.2-9.8-27.5-21.6-27.5C159.7,49.1,159.2,49.1,159.2,49.1c-6.3,0.5-11.7,3.9-15.6,9.8"/>
</svg>
